<svg width="336" height="20" viewBox="0 0 336 20" fill="none" xmlns="http://www.w3.org/2000/svg">
<path d="M6.128 15.032C2.624 15.032 0.4 12.872 0.4 9.64C0.4 6.408 2.624 4.248 6.128 4.248C9.632 4.248 11.856 6.408 11.856 9.64C11.856 12.872 9.632 15.032 6.128 15.032ZM6.128 13.784C9.152 13.784 10.464 12.456 10.464 9.64C10.464 6.824 9.152 5.496 6.128 5.496C3.104 5.496 1.776 6.824 1.776 9.64C1.776 12.456 3.104 13.784 6.128 13.784ZM6.176 12.536C4.272 12.536 3.04 11.368 3.04 9.64C3.04 7.896 4.272 6.744 6.176 6.744C7.904 6.744 9.136 7.72 9.136 9.064V9.192H7.84V9.096C7.84 8.264 7.2 7.928 6.176 7.928C4.992 7.928 4.336 8.392 4.336 9.64C4.336 10.888 4.992 11.352 6.176 11.352C7.2 11.352 7.84 11 7.84 10.184V10.088H9.136V10.216C9.136 11.56 7.904 12.536 6.176 12.536ZM24.1844 15H15.2084V13.864C15.2084 11.88 15.9924 10.888 18.2004 10.136L20.7604 9.256C22.0404 8.792 22.4884 8.36 22.4884 7.416C22.4884 6.28 21.7524 5.704 19.8324 5.704C17.6884 5.704 16.8884 6.456 16.8884 7.864V8.056H15.1924V7.896C15.1924 5.912 16.5524 4.12 19.8964 4.12C22.9364 4.12 24.2164 5.56 24.2164 7.448C24.2164 9.208 23.0804 10.136 21.1924 10.712L18.9364 11.4C17.4964 11.896 17.0004 12.408 17.0004 13.624L19.5924 13.448H24.1844V15ZM30.1676 15.16C26.9356 15.16 25.0156 13.048 25.0156 9.64C25.0156 6.248 26.9356 4.12 30.1676 4.12C33.3996 4.12 35.3196 6.248 35.3196 9.64C35.3196 13.048 33.3996 15.16 30.1676 15.16ZM30.1676 13.496C32.4556 13.496 33.4796 12.312 33.4796 9.64C33.4796 6.968 32.4556 5.784 30.1676 5.784C27.8796 5.784 26.8396 6.968 26.8396 9.64C26.8396 12.312 27.8796 13.496 30.1676 13.496ZM45.1613 15H36.1853V13.864C36.1853 11.88 36.9693 10.888 39.1773 10.136L41.7373 9.256C43.0173 8.792 43.4653 8.36 43.4653 7.416C43.4653 6.28 42.7293 5.704 40.8093 5.704C38.6653 5.704 37.8653 6.456 37.8653 7.864V8.056H36.1693V7.896C36.1693 5.912 37.5293 4.12 40.8733 4.12C43.9133 4.12 45.1933 5.56 45.1933 7.448C45.1933 9.208 44.0573 10.136 42.1693 10.712L39.9133 11.4C38.4733 11.896 37.9773 12.408 37.9773 13.624L40.5693 13.448H45.1613V15ZM50.9045 15.16C47.7685 15.16 46.0725 13.928 46.0725 11.768V11.592H47.8325V11.768C47.8325 13.032 48.7925 13.592 50.9365 13.592C52.8565 13.592 53.7365 13.016 53.7365 11.512C53.7365 10.04 52.8885 9.48 50.9365 9.48C49.4005 9.48 48.5045 9.736 47.8965 10.28L47.7845 10.248V10.28L46.1845 10.168L46.7605 4.28H55.0325V5.832H48.2645L47.8805 9.336L48.0085 9.352C48.5525 8.76 49.8005 8.104 51.5765 8.104C54.0725 8.104 55.5445 9.304 55.5445 11.512C55.5445 13.736 53.9285 15.16 50.9045 15.16ZM63.8166 15.16C60.6166 15.16 58.9846 13.752 58.9846 11.496V11.4H60.7126V11.656C60.7126 12.936 61.4646 13.576 63.8166 13.576C65.8646 13.576 66.5846 13.128 66.5846 12.12C66.5846 11.192 66.0406 10.84 64.6806 10.584L62.0566 10.152C60.2486 9.832 58.9686 9 58.9686 7.24C58.9686 5.688 60.2486 4.12 63.5766 4.12C66.7126 4.12 68.1366 5.688 68.1366 7.784V7.88H66.4246V7.672C66.4246 6.36 65.6406 5.704 63.4166 5.704C61.4646 5.704 60.6966 6.184 60.6966 7.144C60.6966 8.072 61.2406 8.376 62.5046 8.648L65.1126 9.096C67.2566 9.48 68.3126 10.456 68.3126 12.024C68.3126 13.656 66.9846 15.16 63.8166 15.16ZM71.1074 17.72H69.3794V7.048H70.9634V9.256H71.1074C71.4274 7.784 72.5474 6.888 74.4194 6.888C76.8834 6.888 78.2754 8.568 78.2754 11.032C78.2754 13.496 76.9154 15.16 74.4354 15.16C72.6434 15.16 71.4914 14.216 71.1714 12.76H71.1074V17.72ZM71.1074 11.16C71.1074 12.792 72.1474 13.592 73.8434 13.592C75.5554 13.592 76.5474 12.936 76.5474 11.032C76.5474 9.112 75.5394 8.472 73.8754 8.472C72.0994 8.472 71.1074 9.304 71.1074 11.016V11.16ZM81.0411 6.12H79.3131V4.28H81.0411V6.12ZM81.0411 15H79.3131V7.048H81.0411V15ZM86.4973 15.16C83.8733 15.16 82.1613 13.48 82.1613 11.032C82.1613 8.552 83.8733 6.888 86.4973 6.888C88.8813 6.888 90.6253 8.232 90.6253 10.216V10.376H88.9133V10.28C88.9133 9.048 88.0173 8.44 86.4653 8.44C84.6733 8.44 83.8733 9.288 83.8733 11.032C83.8733 12.744 84.6733 13.608 86.4653 13.608C88.0173 13.608 88.9133 13 88.9133 11.768V11.656H90.6253V11.832C90.6253 13.816 88.8813 15.16 86.4973 15.16ZM95.7431 15.16C93.1351 15.16 91.4231 13.688 91.4231 11.032C91.4231 8.552 93.1191 6.888 95.7111 6.888C98.1751 6.888 99.8551 8.248 99.8551 10.664C99.8551 10.952 99.8391 11.176 99.7911 11.416H93.0391C93.1031 12.952 93.8551 13.768 95.6951 13.768C97.3591 13.768 98.0471 13.224 98.0471 12.28V12.152H99.7751V12.296C99.7751 13.992 98.1111 15.16 95.7431 15.16ZM95.6791 8.248C93.9191 8.248 93.1511 9.032 93.0551 10.456H98.2231V10.424C98.2231 8.952 97.3751 8.248 95.6791 8.248ZM107.548 15.16C104.7 15.16 103.004 14.136 103.004 12.072C103.004 10.536 103.948 9.624 105.484 9.384V9.256C104.092 9.048 103.388 8.104 103.388 6.936C103.388 5.08 104.844 4.168 107.308 4.168H109.532V5.736H107.084C105.676 5.736 105.1 6.152 105.1 7.24C105.1 8.328 105.836 8.728 107.132 8.728H110.62V7.048H112.316V8.728H114.06V10.168H112.316V11.272C112.316 13.688 110.876 15.16 107.548 15.16ZM107.612 13.592C109.884 13.592 110.62 13.016 110.62 11.352V10.168H106.812C105.516 10.168 104.748 10.648 104.748 11.88C104.748 13.08 105.468 13.592 107.612 13.592ZM121.755 15.16C118.555 15.16 116.923 13.752 116.923 11.496V11.4H118.651V11.656C118.651 12.936 119.403 13.576 121.755 13.576C123.803 13.576 124.523 13.128 124.523 12.12C124.523 11.192 123.979 10.84 122.619 10.584L119.995 10.152C118.187 9.832 116.907 9 116.907 7.24C116.907 5.688 118.187 4.12 121.515 4.12C124.651 4.12 126.075 5.688 126.075 7.784V7.88H124.363V7.672C124.363 6.36 123.579 5.704 121.355 5.704C119.403 5.704 118.635 6.184 118.635 7.144C118.635 8.072 119.179 8.376 120.443 8.648L123.051 9.096C125.195 9.48 126.251 10.456 126.251 12.024C126.251 13.656 124.923 15.16 121.755 15.16ZM131.318 15.16C128.71 15.16 126.998 13.688 126.998 11.032C126.998 8.552 128.694 6.888 131.286 6.888C133.75 6.888 135.43 8.248 135.43 10.664C135.43 10.952 135.414 11.176 135.366 11.416H128.614C128.678 12.952 129.43 13.768 131.27 13.768C132.934 13.768 133.622 13.224 133.622 12.28V12.152H135.35V12.296C135.35 13.992 133.686 15.16 131.318 15.16ZM131.254 8.248C129.494 8.248 128.726 9.032 128.63 10.456H133.798V10.424C133.798 8.952 132.95 8.248 131.254 8.248ZM138.292 15H136.564V7.048H138.148V9.192H138.26C138.5 7.912 139.364 6.888 140.996 6.888C142.804 6.888 143.588 8.184 143.588 9.688V10.728H141.876V10.024C141.876 8.888 141.396 8.36 140.212 8.36C138.852 8.36 138.292 9.112 138.292 10.536V15ZM149.618 15H147.506L143.794 7.048H145.698L148.53 13.32H148.658L151.49 7.048H153.362L149.618 15ZM158.088 15.16C155.48 15.16 153.768 13.688 153.768 11.032C153.768 8.552 155.464 6.888 158.056 6.888C160.52 6.888 162.2 8.248 162.2 10.664C162.2 10.952 162.184 11.176 162.136 11.416H155.384C155.448 12.952 156.2 13.768 158.04 13.768C159.704 13.768 160.392 13.224 160.392 12.28V12.152H162.12V12.296C162.12 13.992 160.456 15.16 158.088 15.16ZM158.024 8.248C156.264 8.248 155.496 9.032 155.4 10.456H160.568V10.424C160.568 8.952 159.72 8.248 158.024 8.248ZM165.19 15H163.014V12.52H165.19V15ZM170.009 15H168.089L172.873 4.28H175.305L180.089 15H178.137L176.905 12.216H171.241L170.009 15ZM173.385 7.4L171.929 10.664H176.217L174.761 7.4L174.137 5.88H174.009L173.385 7.4ZM182.457 15H180.729V4.28H182.457V15ZM185.626 15H183.898V4.28H185.626V15ZM191.368 15H189.64V7.048H191.224V9.192H191.336C191.576 7.912 192.44 6.888 194.072 6.888C195.88 6.888 196.664 8.184 196.664 9.688V10.728H194.952V10.024C194.952 8.888 194.472 8.36 193.288 8.36C191.928 8.36 191.368 9.112 191.368 10.536V15ZM199.317 6.12H197.589V4.28H199.317V6.12ZM199.317 15H197.589V7.048H199.317V15ZM204.214 14.28C201.846 14.28 200.438 12.792 200.438 10.584C200.438 8.376 201.91 6.888 204.326 6.888C205.99 6.888 207.238 7.64 207.526 9.032H207.622V7.048H209.206V14.072C209.206 16.744 207.542 17.88 204.934 17.88C202.582 17.88 200.95 16.776 200.95 14.856H202.662C202.662 16.008 203.334 16.44 205.03 16.44C206.838 16.44 207.494 15.944 207.494 14.168V12.216H207.382C207.094 13.416 206.022 14.28 204.214 14.28ZM202.182 10.584C202.182 12.216 203.142 12.792 204.774 12.792C206.534 12.792 207.494 12.056 207.494 10.648V10.424C207.494 9.08 206.502 8.392 204.822 8.392C203.158 8.392 202.182 8.952 202.182 10.584ZM212.372 15H210.644V4.28H212.372V9.48H212.468C212.74 8.136 213.716 6.888 215.748 6.888C217.94 6.888 219.012 8.328 219.012 10.264V15H217.3V10.68C217.3 9.08 216.58 8.44 214.932 8.44C213.044 8.44 212.372 9.464 212.372 11.144V15ZM225.622 15H223.798C222.086 15 221.03 14.248 221.03 12.312V8.488H219.686V7.048H221.03V5.304H222.742V7.048H225.622V8.488H222.742V12.216C222.742 13.192 223.19 13.448 224.182 13.448H225.622V15ZM230.303 15.16C227.743 15.16 226.287 14.152 226.287 12.312V12.264H228.015V12.392C228.015 13.432 228.639 13.768 230.303 13.768C231.855 13.768 232.319 13.448 232.319 12.744C232.319 12.088 231.935 11.88 230.799 11.72L228.623 11.432C227.119 11.24 226.207 10.6 226.207 9.272C226.207 7.88 227.471 6.888 229.919 6.888C232.351 6.888 233.823 7.864 233.823 9.752V9.8H232.111V9.704C232.111 8.76 231.631 8.264 229.871 8.264C228.415 8.264 227.903 8.584 227.903 9.336C227.903 9.96 228.223 10.184 229.423 10.344L231.263 10.6C233.151 10.84 234.015 11.48 234.015 12.792C234.015 14.28 232.543 15.16 230.303 15.16ZM239.404 15H237.676V7.048H239.26V9.192H239.372C239.612 7.912 240.476 6.888 242.108 6.888C243.916 6.888 244.7 8.184 244.7 9.688V10.728H242.988V10.024C242.988 8.888 242.508 8.36 241.324 8.36C239.964 8.36 239.404 9.112 239.404 10.536V15ZM249.626 15.16C247.018 15.16 245.306 13.688 245.306 11.032C245.306 8.552 247.002 6.888 249.594 6.888C252.058 6.888 253.738 8.248 253.738 10.664C253.738 10.952 253.722 11.176 253.674 11.416H246.922C246.986 12.952 247.738 13.768 249.578 13.768C251.242 13.768 251.93 13.224 251.93 12.28V12.152H253.658V12.296C253.658 13.992 251.994 15.16 249.626 15.16ZM249.562 8.248C247.802 8.248 247.034 9.032 246.938 10.456H252.106V10.424C252.106 8.952 251.258 8.248 249.562 8.248ZM258.632 15.16C256.072 15.16 254.616 14.152 254.616 12.312V12.264H256.344V12.392C256.344 13.432 256.968 13.768 258.632 13.768C260.184 13.768 260.648 13.448 260.648 12.744C260.648 12.088 260.264 11.88 259.128 11.72L256.952 11.432C255.448 11.24 254.536 10.6 254.536 9.272C254.536 7.88 255.8 6.888 258.248 6.888C260.68 6.888 262.152 7.864 262.152 9.752V9.8H260.44V9.704C260.44 8.76 259.96 8.264 258.2 8.264C256.744 8.264 256.232 8.584 256.232 9.336C256.232 9.96 256.552 10.184 257.752 10.344L259.592 10.6C261.48 10.84 262.344 11.48 262.344 12.792C262.344 14.28 260.872 15.16 258.632 15.16ZM267.431 15.16C264.823 15.16 263.111 13.688 263.111 11.032C263.111 8.552 264.807 6.888 267.399 6.888C269.863 6.888 271.543 8.248 271.543 10.664C271.543 10.952 271.527 11.176 271.479 11.416H264.727C264.791 12.952 265.543 13.768 267.383 13.768C269.047 13.768 269.735 13.224 269.735 12.28V12.152H271.463V12.296C271.463 13.992 269.799 15.16 267.431 15.16ZM267.367 8.248C265.607 8.248 264.839 9.032 264.743 10.456H269.911V10.424C269.911 8.952 269.063 8.248 267.367 8.248ZM274.405 15H272.677V7.048H274.261V9.192H274.373C274.613 7.912 275.477 6.888 277.109 6.888C278.917 6.888 279.701 8.184 279.701 9.688V10.728H277.989V10.024C277.989 8.888 277.509 8.36 276.325 8.36C274.965 8.36 274.405 9.112 274.405 10.536V15ZM285.73 15H283.618L279.906 7.048H281.81L284.642 13.32H284.77L287.602 7.048H289.474L285.73 15ZM294.201 15.16C291.593 15.16 289.881 13.688 289.881 11.032C289.881 8.552 291.577 6.888 294.169 6.888C296.633 6.888 298.313 8.248 298.313 10.664C298.313 10.952 298.297 11.176 298.249 11.416H291.497C291.561 12.952 292.313 13.768 294.153 13.768C295.817 13.768 296.505 13.224 296.505 12.28V12.152H298.233V12.296C298.233 13.992 296.569 15.16 294.201 15.16ZM294.137 8.248C292.377 8.248 291.609 9.032 291.513 10.456H296.681V10.424C296.681 8.952 295.833 8.248 294.137 8.248ZM302.951 15.16C300.439 15.16 299.047 13.48 299.047 11.032C299.047 8.552 300.423 6.888 302.839 6.888C304.727 6.888 305.799 7.864 306.119 9.208H306.215V4.28H307.943V15H306.359V12.712H306.247C305.911 14.296 304.743 15.16 302.951 15.16ZM300.791 11.032C300.791 12.936 301.767 13.576 303.479 13.576C305.175 13.576 306.215 12.776 306.215 11.112V10.984C306.215 9.288 305.223 8.456 303.447 8.456C301.783 8.456 300.791 9.112 300.791 11.032ZM311.237 15H309.061V12.52H311.237V15Z" fill="#F5F5DC"/>
<path d="M324 6.69335C323.643 6.33602 323.067 6.33602 322.709 6.69335L322.613 6.78935C322.256 7.14669 322.256 7.72269 322.613 8.08002L322.811 8.27735C322.069 9.20535 322.128 10.5707 322.987 11.4294C323.845 12.288 325.211 12.3467 326.139 11.6054L326.336 11.8027C326.693 12.16 327.269 12.16 327.627 11.8027L327.723 11.7067C328.08 11.3494 328.08 10.7734 327.723 10.416L324 6.69335ZM323.365 11.0507C322.715 10.4 322.656 9.37602 323.189 8.65602L325.76 11.2267C325.04 11.7654 324.016 11.7067 323.365 11.0507ZM327.349 11.3334L327.253 11.4294C327.104 11.5787 326.864 11.5787 326.715 11.4294L322.987 7.70135C322.837 7.55202 322.837 7.31202 322.987 7.16269L323.083 7.06669C323.232 6.91735 323.472 6.91735 323.621 7.06669L327.349 10.7947C327.499 10.944 327.499 11.184 327.349 11.3334Z" fill="#F5F5DC"/>
<path d="M333.515 2.98668L331.435 0.906679C331.056 0.528013 330.533 0.330679 330 0.362679C329.467 0.394679 328.971 0.656013 328.645 1.07735L324.635 6.24001C324.555 6.34668 324.56 6.49601 324.656 6.59201C324.768 6.70401 324.955 6.69335 325.056 6.56535L329.067 1.40801C329.381 1.00268 329.909 0.805346 330.432 0.928013C330.677 0.986679 330.901 1.12001 331.077 1.29601L333.141 3.36001C333.413 3.63201 333.552 4.00535 333.531 4.38401C333.509 4.76268 333.323 5.11468 333.019 5.34935L327.856 9.36001C327.728 9.45601 327.717 9.64801 327.829 9.76001C327.925 9.85601 328.075 9.86668 328.181 9.78134L333.344 5.77068C333.765 5.44535 334.027 4.94935 334.059 4.41601C334.091 3.88801 333.893 3.36535 333.515 2.98668Z" fill="#F5F5DC"/>
<path d="M327.867 7.99465C327.963 8.09065 328.112 8.10132 328.219 8.01598L332 5.08265C332.128 4.98665 332.139 4.79465 332.027 4.68265C331.931 4.58665 331.781 4.57598 331.675 4.66132L327.893 7.59465C327.765 7.69598 327.755 7.88265 327.867 7.99465Z" fill="#F5F5DC"/>
<path d="M322.197 13.728C322.339 13.728 322.453 13.6134 322.453 13.472C322.453 13.3306 322.339 13.216 322.197 13.216C322.056 13.216 321.941 13.3306 321.941 13.472C321.941 13.6134 322.056 13.728 322.197 13.728Z" fill="#F5F5DC"/>
<path d="M323.824 14.528C323.965 14.528 324.08 14.4134 324.08 14.272C324.08 14.1306 323.965 14.016 323.824 14.016C323.683 14.016 323.568 14.1306 323.568 14.272C323.568 14.4134 323.683 14.528 323.824 14.528Z" fill="#F5F5DC"/>
<path d="M324.837 13.472C324.979 13.472 325.093 13.3574 325.093 13.216C325.093 13.0746 324.979 12.96 324.837 12.96C324.696 12.96 324.581 13.0746 324.581 13.216C324.581 13.3574 324.696 13.472 324.837 13.472Z" fill="#F5F5DC"/>
<path d="M323.312 12.9547C323.453 12.9547 323.568 12.8401 323.568 12.6987C323.568 12.5573 323.453 12.4427 323.312 12.4427C323.171 12.4427 323.056 12.5573 323.056 12.6987C323.056 12.8401 323.171 12.9547 323.312 12.9547Z" fill="#F5F5DC"/>
<path d="M322.197 15.4987C322.339 15.4987 322.453 15.3841 322.453 15.2427C322.453 15.1013 322.339 14.9867 322.197 14.9867C322.056 14.9867 321.941 15.1013 321.941 15.2427C321.941 15.3841 322.056 15.4987 322.197 15.4987Z" fill="#F5F5DC"/>
<path d="M324.581 15.6374C324.723 15.6374 324.837 15.5228 324.837 15.3814C324.837 15.24 324.723 15.1254 324.581 15.1254C324.44 15.1254 324.325 15.24 324.325 15.3814C324.325 15.5228 324.44 15.6374 324.581 15.6374Z" fill="#F5F5DC"/>
</svg>
