<svg width="186" height="30" viewBox="0 0 186 30" fill="none" xmlns="http://www.w3.org/2000/svg">
<path d="M7.944 23.24C3.144 23.24 0.696 21.128 0.696 17.744V17.6H3.288V17.984C3.288 19.904 4.416 20.864 7.944 20.864C11.016 20.864 12.096 20.192 12.096 18.68C12.096 17.288 11.28 16.76 9.24 16.376L5.304 15.728C2.592 15.248 0.672 14 0.672 11.36C0.672 9.032 2.592 6.68 7.584 6.68C12.288 6.68 14.424 9.032 14.424 12.176V12.32H11.856V12.008C11.856 10.04 10.68 9.056 7.344 9.056C4.416 9.056 3.264 9.776 3.264 11.216C3.264 12.608 4.08 13.064 5.976 13.472L9.888 14.144C13.104 14.72 14.688 16.184 14.688 18.536C14.688 20.984 12.696 23.24 7.944 23.24ZM18.6401 27.08H16.0481V11.072H18.4241V14.384H18.6401C19.1201 12.176 20.8001 10.832 23.6081 10.832C27.3041 10.832 29.3921 13.352 29.3921 17.048C29.3921 20.744 27.3521 23.24 23.6321 23.24C20.9441 23.24 19.2161 21.824 18.7361 19.64H18.6401V27.08ZM18.6401 17.24C18.6401 19.688 20.2001 20.888 22.7441 20.888C25.3121 20.888 26.8001 19.904 26.8001 17.048C26.8001 14.168 25.2881 13.208 22.7921 13.208C20.1281 13.208 18.6401 14.456 18.6401 17.024V17.24ZM33.3008 9.68H30.7088V6.92H33.3008V9.68ZM33.3008 23H30.7088V11.072H33.3008V23ZM41.2449 23.24C37.3089 23.24 34.7409 20.72 34.7409 17.048C34.7409 13.328 37.3089 10.832 41.2449 10.832C44.8209 10.832 47.4369 12.848 47.4369 15.824V16.064H44.8689V15.92C44.8689 14.072 43.5249 13.16 41.1969 13.16C38.5089 13.16 37.3089 14.432 37.3089 17.048C37.3089 19.616 38.5089 20.912 41.1969 20.912C43.5249 20.912 44.8689 20 44.8689 18.152V17.984H47.4369V18.248C47.4369 21.224 44.8209 23.24 41.2449 23.24ZM54.8738 23.24C50.9618 23.24 48.3938 21.032 48.3938 17.048C48.3938 13.328 50.9378 10.832 54.8258 10.832C58.5218 10.832 61.0418 12.872 61.0418 16.496C61.0418 16.928 61.0178 17.264 60.9458 17.624H50.8178C50.9138 19.928 52.0418 21.152 54.8018 21.152C57.2978 21.152 58.3298 20.336 58.3298 18.92V18.728H60.9218V18.944C60.9218 21.488 58.4258 23.24 54.8738 23.24ZM54.7778 12.872C52.1378 12.872 50.9858 14.048 50.8418 16.184H58.5938V16.136C58.5938 13.928 57.3218 12.872 54.7778 12.872ZM72.1007 23.24C67.8287 23.24 65.2847 21.704 65.2847 18.608C65.2847 16.304 66.7007 14.936 69.0047 14.576V14.384C66.9167 14.072 65.8607 12.656 65.8607 10.904C65.8607 8.12 68.0447 6.752 71.7407 6.752H75.0767V9.104H71.4047C69.2927 9.104 68.4287 9.728 68.4287 11.36C68.4287 12.992 69.5327 13.592 71.4767 13.592H76.7087V11.072H79.2527V13.592H81.8687V15.752H79.2527V17.408C79.2527 21.032 77.0927 23.24 72.1007 23.24ZM72.1967 20.888C75.6047 20.888 76.7087 20.024 76.7087 17.528V15.752H70.9967C69.0527 15.752 67.9007 16.472 67.9007 18.32C67.9007 20.12 68.9807 20.888 72.1967 20.888ZM92.9321 23.24C88.1321 23.24 85.6841 21.128 85.6841 17.744V17.6H88.2761V17.984C88.2761 19.904 89.4041 20.864 92.9321 20.864C96.0041 20.864 97.0841 20.192 97.0841 18.68C97.0841 17.288 96.2681 16.76 94.2281 16.376L90.2921 15.728C87.5801 15.248 85.6601 14 85.6601 11.36C85.6601 9.032 87.5801 6.68 92.5721 6.68C97.2761 6.68 99.4121 9.032 99.4121 12.176V12.32H96.8441V12.008C96.8441 10.04 95.6681 9.056 92.3321 9.056C89.4041 9.056 88.2521 9.776 88.2521 11.216C88.2521 12.608 89.0681 13.064 90.9641 13.472L94.8761 14.144C98.0921 14.72 99.6761 16.184 99.6761 18.536C99.6761 20.984 97.6841 23.24 92.9321 23.24ZM107.036 23.24C103.124 23.24 100.556 21.032 100.556 17.048C100.556 13.328 103.1 10.832 106.988 10.832C110.684 10.832 113.204 12.872 113.204 16.496C113.204 16.928 113.18 17.264 113.108 17.624H102.98C103.076 19.928 104.204 21.152 106.964 21.152C109.46 21.152 110.492 20.336 110.492 18.92V18.728H113.084V18.944C113.084 21.488 110.588 23.24 107.036 23.24ZM106.94 12.872C104.3 12.872 103.148 14.048 103.004 16.184H110.756V16.136C110.756 13.928 109.484 12.872 106.94 12.872ZM117.258 23H114.666V11.072H117.042V14.288H117.21C117.57 12.368 118.866 10.832 121.314 10.832C124.026 10.832 125.202 12.776 125.202 15.032V16.592H122.634V15.536C122.634 13.832 121.914 13.04 120.138 13.04C118.098 13.04 117.258 14.168 117.258 16.304V23ZM134.006 23H130.838L125.27 11.072H128.126L132.374 20.48H132.566L136.814 11.072H139.622L134.006 23ZM146.471 23.24C142.559 23.24 139.991 21.032 139.991 17.048C139.991 13.328 142.535 10.832 146.423 10.832C150.119 10.832 152.639 12.872 152.639 16.496C152.639 16.928 152.615 17.264 152.543 17.624H142.415C142.511 19.928 143.639 21.152 146.399 21.152C148.895 21.152 149.927 20.336 149.927 18.92V18.728H152.519V18.944C152.519 21.488 150.023 23.24 146.471 23.24ZM146.375 12.872C143.735 12.872 142.583 14.048 142.439 16.184H150.191V16.136C150.191 13.928 148.919 12.872 146.375 12.872Z" fill="#F5F5DC"/>
<path d="M168 10.04C167.464 9.504 166.6 9.504 166.064 10.04L165.92 10.184C165.384 10.72 165.384 11.584 165.92 12.12L166.216 12.416C165.104 13.808 165.192 15.856 166.48 17.144C167.768 18.432 169.816 18.52 171.208 17.408L171.504 17.704C172.04 18.24 172.904 18.24 173.44 17.704L173.584 17.56C174.12 17.024 174.12 16.16 173.584 15.624L168 10.04ZM167.048 16.576C166.072 15.6 165.984 14.064 166.784 12.984L170.64 16.84C169.56 17.648 168.024 17.56 167.048 16.576ZM173.024 17L172.88 17.144C172.656 17.368 172.296 17.368 172.072 17.144L166.48 11.552C166.256 11.328 166.256 10.968 166.48 10.744L166.624 10.6C166.848 10.376 167.208 10.376 167.432 10.6L173.024 16.192C173.248 16.416 173.248 16.776 173.024 17Z" fill="#F5F5DC"/>
<path d="M182.272 4.47999L179.152 1.35999C178.584 0.791988 177.8 0.495988 177 0.543988C176.2 0.591988 175.456 0.983988 174.968 1.61599L168.952 9.35999C168.832 9.51999 168.84 9.74399 168.984 9.88799C169.152 10.056 169.432 10.04 169.584 9.84799L175.6 2.11199C176.072 1.50399 176.864 1.20799 177.648 1.39199C178.016 1.47999 178.352 1.67999 178.616 1.94399L181.712 5.03999C182.12 5.44799 182.328 6.00799 182.296 6.57599C182.264 7.14399 181.984 7.67199 181.528 8.02399L173.784 14.04C173.592 14.184 173.576 14.472 173.744 14.64C173.888 14.784 174.112 14.8 174.272 14.672L182.016 8.65599C182.648 8.16799 183.04 7.42399 183.088 6.62399C183.136 5.83199 182.84 5.04799 182.272 4.47999Z" fill="#F5F5DC"/>
<path d="M173.8 11.992C173.944 12.136 174.168 12.152 174.328 12.024L180 7.62397C180.192 7.47997 180.208 7.19197 180.04 7.02397C179.896 6.87997 179.672 6.86397 179.512 6.99197L173.84 11.392C173.648 11.544 173.632 11.824 173.8 11.992Z" fill="#F5F5DC"/>
<path d="M165.296 20.592C165.508 20.592 165.68 20.4201 165.68 20.208C165.68 19.9959 165.508 19.824 165.296 19.824C165.084 19.824 164.912 19.9959 164.912 20.208C164.912 20.4201 165.084 20.592 165.296 20.592Z" fill="#F5F5DC"/>
<path d="M167.736 21.792C167.948 21.792 168.12 21.6201 168.12 21.408C168.12 21.1959 167.948 21.024 167.736 21.024C167.524 21.024 167.352 21.1959 167.352 21.408C167.352 21.6201 167.524 21.792 167.736 21.792Z" fill="#F5F5DC"/>
<path d="M169.256 20.208C169.468 20.208 169.64 20.0361 169.64 19.824C169.64 19.6119 169.468 19.44 169.256 19.44C169.044 19.44 168.872 19.6119 168.872 19.824C168.872 20.0361 169.044 20.208 169.256 20.208Z" fill="#F5F5DC"/>
<path d="M166.968 19.432C167.18 19.432 167.352 19.2601 167.352 19.048C167.352 18.8359 167.18 18.664 166.968 18.664C166.756 18.664 166.584 18.8359 166.584 19.048C166.584 19.2601 166.756 19.432 166.968 19.432Z" fill="#F5F5DC"/>
<path d="M165.296 23.248C165.508 23.248 165.68 23.0761 165.68 22.864C165.68 22.6519 165.508 22.48 165.296 22.48C165.084 22.48 164.912 22.6519 164.912 22.864C164.912 23.0761 165.084 23.248 165.296 23.248Z" fill="#F5F5DC"/>
<path d="M168.872 23.456C169.084 23.456 169.256 23.2841 169.256 23.072C169.256 22.8599 169.084 22.688 168.872 22.688C168.66 22.688 168.488 22.8599 168.488 23.072C168.488 23.2841 168.66 23.456 168.872 23.456Z" fill="#F5F5DC"/>
</svg>
