<svg width="16" height="16" viewBox="0 0 16 16" fill="none" xmlns="http://www.w3.org/2000/svg">
<path d="M8.66666 9.33334L6.66666 7.33334M10.0069 2.33334V1.33334M12.6331 3.37378L13.3402 2.66667M12.6331 8.66667L13.3402 9.37378M7.34023 3.37378L6.63313 2.66667M13.6736 6H14.6736M4.08758 13.9124L10.2458 7.75425C10.5098 7.49024 10.6418 7.35823 10.6912 7.20601C10.7347 7.07212 10.7347 6.92789 10.6912 6.79399C10.6418 6.64177 10.5098 6.50977 10.2458 6.24576L9.75425 5.75425C9.49023 5.49024 9.35823 5.35823 9.20601 5.30877C9.07211 5.26527 8.92788 5.26527 8.79399 5.30877C8.64177 5.35823 8.50976 5.49024 8.24575 5.75425L2.08758 11.9124C1.82357 12.1764 1.69156 12.3084 1.6421 12.4607C1.5986 12.5946 1.5986 12.7388 1.6421 12.8727C1.69156 13.0249 1.82357 13.1569 2.08758 13.4209L2.57908 13.9124C2.8431 14.1764 2.9751 14.3084 3.12732 14.3579C3.26122 14.4014 3.40545 14.4014 3.53934 14.3579C3.69156 14.3084 3.82357 14.1764 4.08758 13.9124Z" stroke="#04E1E1" stroke-linecap="round" stroke-linejoin="round"/>
</svg>
